<svg width="320" height="86" viewBox="0 0 320 86" fill="none" xmlns="http://www.w3.org/2000/svg">
<path d="M8.856 38.284H3.276C2.7 38.284 2.28 38.152 2.016 37.888C1.752 37.624 1.62 37.204 1.62 36.628V13.3C1.62 12.988 1.656 12.724 1.728 12.508C1.824 12.292 1.956 12.112 2.124 11.968L6.768 8.044C6.888 7.948 7.044 7.876 7.236 7.828C7.452 7.756 7.68 7.72 7.92 7.72H18.936C20.64 7.72 22.068 7.9 23.22 8.26C24.372 8.62 25.284 9.124 25.956 9.772C26.628 10.42 27.096 11.2 27.36 12.112C27.648 13.024 27.792 14.02 27.792 15.1V19.708C27.792 20.86 27.624 21.916 27.288 22.876C26.976 23.812 26.424 24.616 25.632 25.288L20.952 29.176C20.352 29.68 19.572 30.1 18.612 30.436C17.676 30.748 16.524 30.928 15.156 30.976V32.704C15.156 33.016 15.108 33.28 15.012 33.496C14.94 33.712 14.82 33.892 14.652 34.036L9.972 37.924C9.876 38.02 9.72 38.104 9.504 38.176C9.312 38.248 9.096 38.284 8.856 38.284ZM13.5 34C13.956 34 14.28 33.904 14.472 33.712C14.688 33.496 14.796 33.16 14.796 32.704V26.728H18.936C22.2 26.728 24.432 26.08 25.632 24.784C26.832 23.488 27.432 21.796 27.432 19.708V15.1C27.432 13.012 26.832 11.32 25.632 10.024C24.432 8.728 22.2 8.08 18.936 8.08H7.92C7.464 8.08 7.128 8.188 6.912 8.404C6.72 8.596 6.624 8.92 6.624 9.376V32.704C6.624 33.16 6.72 33.496 6.912 33.712C7.128 33.904 7.464 34 7.92 34H13.5ZM18.432 23.668H11.016V30.76H10.656V11.32H18.432C19.56 11.32 20.472 11.452 21.168 11.716C21.888 11.956 22.44 12.292 22.824 12.724C23.208 13.156 23.472 13.672 23.616 14.272C23.76 14.872 23.832 15.52 23.832 16.216V18.88C23.832 19.576 23.76 20.224 23.616 20.824C23.472 21.4 23.208 21.904 22.824 22.336C22.44 22.744 21.888 23.068 21.168 23.308C20.472 23.548 19.56 23.668 18.432 23.668ZM11.016 23.308H18.432C19.488 23.308 20.34 23.2 20.988 22.984C21.66 22.768 22.176 22.468 22.536 22.084C22.896 21.676 23.136 21.208 23.256 20.68C23.4 20.128 23.472 19.528 23.472 18.88V16.216C23.472 15.568 23.4 14.968 23.256 14.416C23.136 13.864 22.896 13.384 22.536 12.976C22.176 12.568 21.66 12.256 20.988 12.04C20.34 11.8 19.488 11.68 18.432 11.68H11.016V23.308ZM14.724 14.812H17.964C18.66 14.812 19.116 14.992 19.332 15.352C19.548 15.712 19.656 16.12 19.656 16.576V18.484C19.656 18.94 19.548 19.348 19.332 19.708C19.116 20.068 18.66 20.248 17.964 20.248H14.724V14.812ZM46.1962 38.284H30.8602C30.2842 38.284 29.8642 38.152 29.6002 37.888C29.3362 37.624 29.2042 37.204 29.2042 36.628V32.344C29.2042 32.032 29.2402 31.768 29.3122 31.552C29.4082 31.336 29.5402 31.156 29.7082 31.012L34.0642 27.34V19.312H30.8602C30.2842 19.312 29.8642 19.18 29.6002 18.916C29.3362 18.652 29.2042 18.232 29.2042 17.656V13.3C29.2042 12.988 29.2402 12.724 29.3122 12.508C29.4082 12.292 29.5402 12.112 29.7082 11.968L34.3522 8.044C34.4722 7.948 34.6282 7.876 34.8202 7.828C35.0362 7.756 35.2642 7.72 35.5042 7.72H50.8402C51.4162 7.72 51.8362 7.852 52.1002 8.116C52.3642 8.38 52.4962 8.8 52.4962 9.376V13.732C52.4962 14.044 52.4482 14.308 52.3522 14.524C52.2802 14.74 52.1602 14.92 51.9922 15.064L47.7082 18.664V26.764H50.8402C51.4162 26.764 51.8362 26.896 52.1002 27.16C52.3642 27.424 52.4962 27.844 52.4962 28.42V32.704C52.4962 33.016 52.4482 33.28 52.3522 33.496C52.2802 33.712 52.1602 33.892 51.9922 34.036L47.3122 37.924C47.2162 38.02 47.0602 38.104 46.8442 38.176C46.6522 38.248 46.4362 38.284 46.1962 38.284ZM35.5042 34H50.8402C51.2962 34 51.6202 33.904 51.8122 33.712C52.0282 33.496 52.1362 33.16 52.1362 32.704V28.42C52.1362 27.964 52.0282 27.64 51.8122 27.448C51.6202 27.232 51.2962 27.124 50.8402 27.124H47.3482V15.028H50.8402C51.2962 15.028 51.6202 14.932 51.8122 14.74C52.0282 14.524 52.1362 14.188 52.1362 13.732V9.376C52.1362 8.92 52.0282 8.596 51.8122 8.404C51.6202 8.188 51.2962 8.08 50.8402 8.08H35.5042C35.0482 8.08 34.7122 8.188 34.4962 8.404C34.3042 8.596 34.2082 8.92 34.2082 9.376V13.732C34.2082 14.188 34.3042 14.524 34.4962 14.74C34.7122 14.932 35.0482 15.028 35.5042 15.028H39.0682V27.124H35.5042C35.0482 27.124 34.7122 27.232 34.4962 27.448C34.3042 27.64 34.2082 27.964 34.2082 28.42V32.704C34.2082 33.16 34.3042 33.496 34.4962 33.712C34.7122 33.904 35.0482 34 35.5042 34ZM48.8962 30.76H37.4482V30.4H43.0282V11.68H37.4482V11.32H48.8962V11.68H43.3882V30.4H48.8962V30.76ZM73.847 38.284H55.991C55.415 38.284 54.995 38.152 54.731 37.888C54.467 37.624 54.335 37.204 54.335 36.628V31.804C54.335 31.276 54.407 30.832 54.551 30.472C54.719 30.088 54.971 29.716 55.307 29.356L63.587 19.312H56.639C56.063 19.312 55.643 19.18 55.379 18.916C55.115 18.652 54.983 18.232 54.983 17.656V13.3C54.983 12.988 55.019 12.724 55.091 12.508C55.187 12.292 55.319 12.112 55.487 11.968L60.131 8.044C60.251 7.948 60.407 7.876 60.599 7.828C60.815 7.756 61.043 7.72 61.283 7.72H77.843C78.419 7.72 78.839 7.852 79.103 8.116C79.367 8.38 79.499 8.8 79.499 9.376V14.74C79.499 15.268 79.415 15.724 79.247 16.108C79.103 16.492 78.863 16.864 78.527 17.224L70.643 26.764H78.491C79.067 26.764 79.487 26.896 79.751 27.16C80.015 27.424 80.147 27.844 80.147 28.42V32.704C80.147 33.016 80.099 33.28 80.003 33.496C79.931 33.712 79.811 33.892 79.643 34.036L74.963 37.924C74.867 38.02 74.711 38.104 74.495 38.176C74.303 38.248 74.087 38.284 73.847 38.284ZM78.491 34C78.947 34 79.271 33.904 79.463 33.712C79.679 33.496 79.787 33.16 79.787 32.704V28.42C79.787 27.964 79.679 27.64 79.463 27.448C79.271 27.232 78.947 27.124 78.491 27.124H69.887L78.239 17.008C78.551 16.672 78.779 16.336 78.923 16C79.067 15.64 79.139 15.22 79.139 14.74V9.376C79.139 8.92 79.031 8.596 78.815 8.404C78.623 8.188 78.299 8.08 77.843 8.08H61.283C60.827 8.08 60.491 8.188 60.275 8.404C60.083 8.596 59.987 8.92 59.987 9.376V13.732C59.987 14.188 60.083 14.524 60.275 14.74C60.491 14.932 60.827 15.028 61.283 15.028H68.987L60.239 25.648C59.927 25.984 59.699 26.332 59.555 26.692C59.411 27.028 59.339 27.424 59.339 27.88V32.704C59.339 33.16 59.435 33.496 59.627 33.712C59.843 33.904 60.179 34 60.635 34H78.491ZM74.711 14.416L64.163 27.952C63.995 28.168 63.863 28.348 63.767 28.492C63.695 28.636 63.659 28.828 63.659 29.068V29.572C63.659 29.908 63.731 30.136 63.875 30.256C64.043 30.352 64.223 30.4 64.415 30.4H76.547V30.76H64.415C64.031 30.76 63.743 30.664 63.551 30.472C63.383 30.28 63.299 29.98 63.299 29.572V28.996C63.299 28.732 63.359 28.504 63.479 28.312C63.599 28.096 63.743 27.88 63.911 27.664L74.459 14.128C74.627 13.912 74.747 13.732 74.819 13.588C74.915 13.444 74.963 13.252 74.963 13.012V12.508C74.963 12.172 74.879 11.956 74.711 11.86C74.567 11.74 74.399 11.68 74.207 11.68H63.227V11.32H74.207C74.591 11.32 74.867 11.416 75.035 11.608C75.227 11.8 75.323 12.1 75.323 12.508V13.084C75.323 13.348 75.263 13.588 75.143 13.804C75.023 13.996 74.879 14.2 74.711 14.416ZM101.023 38.284H83.1668C82.5908 38.284 82.1708 38.152 81.9067 37.888C81.6428 37.624 81.5108 37.204 81.5108 36.628V31.804C81.5108 31.276 81.5828 30.832 81.7268 30.472C81.8948 30.088 82.1468 29.716 82.4828 29.356L90.7628 19.312H83.8148C83.2388 19.312 82.8188 19.18 82.5548 18.916C82.2908 18.652 82.1588 18.232 82.1588 17.656V13.3C82.1588 12.988 82.1948 12.724 82.2668 12.508C82.3628 12.292 82.4948 12.112 82.6628 11.968L87.3068 8.044C87.4268 7.948 87.5828 7.876 87.7748 7.828C87.9908 7.756 88.2188 7.72 88.4588 7.72H105.019C105.595 7.72 106.015 7.852 106.279 8.116C106.543 8.38 106.675 8.8 106.675 9.376V14.74C106.675 15.268 106.591 15.724 106.423 16.108C106.279 16.492 106.039 16.864 105.703 17.224L97.8188 26.764H105.667C106.243 26.764 106.663 26.896 106.927 27.16C107.191 27.424 107.323 27.844 107.323 28.42V32.704C107.323 33.016 107.275 33.28 107.179 33.496C107.107 33.712 106.987 33.892 106.819 34.036L102.139 37.924C102.043 38.02 101.887 38.104 101.671 38.176C101.479 38.248 101.263 38.284 101.023 38.284ZM105.667 34C106.123 34 106.447 33.904 106.639 33.712C106.855 33.496 106.963 33.16 106.963 32.704V28.42C106.963 27.964 106.855 27.64 106.639 27.448C106.447 27.232 106.123 27.124 105.667 27.124H97.0628L105.415 17.008C105.727 16.672 105.955 16.336 106.099 16C106.243 15.64 106.315 15.22 106.315 14.74V9.376C106.315 8.92 106.207 8.596 105.991 8.404C105.799 8.188 105.475 8.08 105.019 8.08H88.4588C88.0028 8.08 87.6668 8.188 87.4508 8.404C87.2588 8.596 87.1628 8.92 87.1628 9.376V13.732C87.1628 14.188 87.2588 14.524 87.4508 14.74C87.6668 14.932 88.0028 15.028 88.4588 15.028H96.1628L87.4148 25.648C87.1028 25.984 86.8748 26.332 86.7308 26.692C86.5868 27.028 86.5148 27.424 86.5148 27.88V32.704C86.5148 33.16 86.6108 33.496 86.8028 33.712C87.0188 33.904 87.3548 34 87.8108 34H105.667ZM101.887 14.416L91.3388 27.952C91.1708 28.168 91.0388 28.348 90.9428 28.492C90.8708 28.636 90.8348 28.828 90.8348 29.068V29.572C90.8348 29.908 90.9068 30.136 91.0508 30.256C91.2188 30.352 91.3988 30.4 91.5908 30.4H103.723V30.76H91.5908C91.2068 30.76 90.9188 30.664 90.7268 30.472C90.5588 30.28 90.4748 29.98 90.4748 29.572V28.996C90.4748 28.732 90.5348 28.504 90.6548 28.312C90.7748 28.096 90.9188 27.88 91.0868 27.664L101.635 14.128C101.803 13.912 101.923 13.732 101.995 13.588C102.091 13.444 102.139 13.252 102.139 13.012V12.508C102.139 12.172 102.055 11.956 101.887 11.86C101.743 11.74 101.575 11.68 101.383 11.68H90.4028V11.32H101.383C101.767 11.32 102.043 11.416 102.211 11.608C102.403 11.8 102.499 12.1 102.499 12.508V13.084C102.499 13.348 102.439 13.588 102.319 13.804C102.199 13.996 102.055 14.2 101.887 14.416ZM118.33 23.092V24.208H132.37V23.092C132.37 22.444 132.31 21.844 132.19 21.292C132.094 20.74 131.962 20.224 131.794 19.744L129.31 13.876C129.046 13.252 128.77 12.736 128.482 12.328C128.194 11.896 127.714 11.68 127.042 11.68H123.514C122.794 11.68 122.29 11.896 122.002 12.328C121.714 12.736 121.45 13.24 121.21 13.84L118.906 19.744C118.738 20.224 118.594 20.74 118.474 21.292C118.378 21.844 118.33 22.444 118.33 23.092ZM124.09 15.64C124.186 15.424 124.282 15.268 124.378 15.172C124.498 15.076 124.63 15.028 124.774 15.028H125.674C125.818 15.028 125.938 15.076 126.034 15.172C126.154 15.268 126.262 15.424 126.358 15.64L128.05 21.112H122.398L124.09 15.64ZM132.37 30.76V24.568H118.33V30.76H117.97V23.092C117.97 22.42 118.018 21.808 118.114 21.256C118.234 20.68 118.39 20.128 118.582 19.6L120.886 13.696C121.15 13.024 121.45 12.46 121.786 12.004C122.122 11.548 122.698 11.32 123.514 11.32H127.042C127.834 11.32 128.386 11.548 128.698 12.004C129.034 12.46 129.346 13.036 129.634 13.732L132.118 19.6C132.31 20.128 132.454 20.68 132.55 21.256C132.67 21.808 132.73 22.42 132.73 23.092V30.76H132.37ZM122.038 32.704V27.664H128.41V32.704C128.41 33.16 128.518 33.496 128.734 33.712C128.974 33.904 129.334 34 129.814 34H135.25C135.706 34 136.03 33.904 136.222 33.712C136.438 33.496 136.546 33.16 136.546 32.704V23.2C136.546 22.48 136.426 21.652 136.186 20.716C135.97 19.78 135.622 18.688 135.142 17.44L132.01 9.268C131.866 8.86 131.638 8.56 131.326 8.368C131.038 8.176 130.666 8.08 130.21 8.08H120.526C120.046 8.08 119.65 8.176 119.338 8.368C119.05 8.56 118.834 8.86 118.69 9.268L115.558 17.44C115.078 18.688 114.718 19.78 114.478 20.716C114.262 21.652 114.154 22.48 114.154 23.2V32.704C114.154 33.16 114.25 33.496 114.442 33.712C114.658 33.904 114.994 34 115.45 34H120.742C121.198 34 121.522 33.904 121.714 33.712C121.93 33.496 122.038 33.16 122.038 32.704ZM117.214 37.924C117.118 38.02 116.962 38.104 116.746 38.176C116.554 38.248 116.338 38.284 116.098 38.284H110.806C110.23 38.284 109.81 38.152 109.546 37.888C109.282 37.624 109.15 37.204 109.15 36.628V27.124C109.15 26.38 109.258 25.54 109.474 24.604C109.714 23.644 110.086 22.516 110.59 21.22L113.686 13.084C113.758 12.868 113.842 12.688 113.938 12.544C114.058 12.376 114.178 12.232 114.298 12.112L114.334 12.076L118.942 8.224C119.134 8.056 119.362 7.936 119.626 7.864C119.89 7.768 120.19 7.72 120.526 7.72H130.21C130.762 7.72 131.206 7.84 131.542 8.08C131.902 8.296 132.166 8.644 132.334 9.124L135.466 17.296C135.97 18.592 136.33 19.72 136.546 20.68C136.786 21.616 136.906 22.456 136.906 23.2V32.704C136.906 33.016 136.858 33.28 136.762 33.496C136.69 33.712 136.57 33.892 136.402 34.036L131.722 37.924C131.626 38.02 131.47 38.104 131.254 38.176C131.062 38.248 130.846 38.284 130.606 38.284H125.17C124.57 38.284 124.126 38.14 123.838 37.852C123.55 37.588 123.406 37.18 123.406 36.628V31.948H122.398V32.704C122.398 33.016 122.35 33.28 122.254 33.496C122.182 33.712 122.062 33.892 121.894 34.036L117.214 37.924ZM156.673 11.68H148.825V22.084H156.673C158.161 22.084 159.157 21.724 159.661 21.004C160.165 20.284 160.417 19.264 160.417 17.944V15.424C160.417 14.32 160.105 13.42 159.481 12.724C158.881 12.028 157.945 11.68 156.673 11.68ZM152.713 14.56H155.413C156.037 14.56 156.457 14.728 156.673 15.064C156.889 15.376 156.997 15.772 156.997 16.252V17.476C156.997 17.956 156.889 18.364 156.673 18.7C156.457 19.012 156.037 19.168 155.413 19.168H152.713V14.56ZM148.825 30.76H148.465V11.32H156.673C158.065 11.32 159.097 11.716 159.769 12.508C160.441 13.276 160.777 14.248 160.777 15.424V17.908C160.777 19.012 160.633 19.924 160.345 20.644C160.057 21.34 159.481 21.82 158.617 22.084H159.013C160.477 22.084 161.569 22.42 162.289 23.092C163.009 23.74 163.369 24.688 163.369 25.936V30.76H163.009V25.936C163.009 24.76 162.685 23.884 162.037 23.308C161.389 22.708 160.381 22.408 159.013 22.408H148.825V30.76ZM151.417 34C151.873 34 152.197 33.904 152.389 33.712C152.605 33.496 152.713 33.16 152.713 32.704V25.648H157.753C158.257 25.648 158.605 25.78 158.797 26.044C159.013 26.284 159.121 26.668 159.121 27.196V32.704C159.121 33.16 159.217 33.496 159.409 33.712C159.625 33.904 159.961 34 160.417 34H165.997C166.453 34 166.777 33.904 166.969 33.712C167.185 33.496 167.293 33.16 167.293 32.704V25.072C167.293 23.56 166.885 22.348 166.069 21.436C165.277 20.524 164.233 19.996 162.937 19.852C163.681 19.54 164.197 19.036 164.485 18.34C164.797 17.62 164.953 16.756 164.953 15.748V14.092C164.953 12.316 164.437 10.876 163.405 9.772C162.397 8.644 160.549 8.08 157.861 8.08H145.873C145.417 8.08 145.081 8.188 144.865 8.404C144.673 8.596 144.577 8.92 144.577 9.376V32.704C144.577 33.16 144.673 33.496 144.865 33.712C145.081 33.904 145.417 34 145.873 34H151.417ZM152.569 34.036L147.889 37.924C147.793 38.02 147.637 38.104 147.421 38.176C147.229 38.248 147.013 38.284 146.773 38.284H141.229C140.653 38.284 140.233 38.152 139.969 37.888C139.705 37.624 139.573 37.204 139.573 36.628V13.3C139.573 12.988 139.609 12.724 139.681 12.508C139.777 12.292 139.909 12.112 140.077 11.968L144.721 8.044C144.841 7.948 144.997 7.876 145.189 7.828C145.405 7.756 145.633 7.72 145.873 7.72H157.861C160.717 7.72 162.673 8.32 163.729 9.52C164.785 10.696 165.313 12.22 165.313 14.092V15.748C165.313 16.636 165.205 17.416 164.989 18.088C164.773 18.736 164.425 19.264 163.945 19.672H163.909C165.037 19.984 165.937 20.608 166.609 21.544C167.305 22.48 167.653 23.656 167.653 25.072V32.704C167.653 33.016 167.605 33.28 167.509 33.496C167.437 33.712 167.317 33.892 167.149 34.036L162.469 37.924C162.373 38.02 162.217 38.104 162.001 38.176C161.809 38.248 161.593 38.284 161.353 38.284H155.773C155.197 38.284 154.777 38.152 154.513 37.888C154.249 37.624 154.117 37.204 154.117 36.628V31.12C154.117 30.736 154.045 30.448 153.901 30.256C153.757 30.04 153.493 29.932 153.109 29.932H153.073V32.704C153.073 33.016 153.025 33.28 152.929 33.496C152.857 33.712 152.737 33.892 152.569 34.036ZM186.329 38.284H170.993C170.417 38.284 169.997 38.152 169.733 37.888C169.469 37.624 169.337 37.204 169.337 36.628V32.344C169.337 32.032 169.373 31.768 169.445 31.552C169.541 31.336 169.673 31.156 169.841 31.012L174.197 27.34V19.312H170.993C170.417 19.312 169.997 19.18 169.733 18.916C169.469 18.652 169.337 18.232 169.337 17.656V13.3C169.337 12.988 169.373 12.724 169.445 12.508C169.541 12.292 169.673 12.112 169.841 11.968L174.485 8.044C174.605 7.948 174.761 7.876 174.953 7.828C175.169 7.756 175.397 7.72 175.637 7.72H190.973C191.549 7.72 191.969 7.852 192.233 8.116C192.497 8.38 192.629 8.8 192.629 9.376V13.732C192.629 14.044 192.581 14.308 192.485 14.524C192.413 14.74 192.293 14.92 192.125 15.064L187.841 18.664V26.764H190.973C191.549 26.764 191.969 26.896 192.233 27.16C192.497 27.424 192.629 27.844 192.629 28.42V32.704C192.629 33.016 192.581 33.28 192.485 33.496C192.413 33.712 192.293 33.892 192.125 34.036L187.445 37.924C187.349 38.02 187.193 38.104 186.977 38.176C186.785 38.248 186.569 38.284 186.329 38.284ZM175.637 34H190.973C191.429 34 191.753 33.904 191.945 33.712C192.161 33.496 192.269 33.16 192.269 32.704V28.42C192.269 27.964 192.161 27.64 191.945 27.448C191.753 27.232 191.429 27.124 190.973 27.124H187.481V15.028H190.973C191.429 15.028 191.753 14.932 191.945 14.74C192.161 14.524 192.269 14.188 192.269 13.732V9.376C192.269 8.92 192.161 8.596 191.945 8.404C191.753 8.188 191.429 8.08 190.973 8.08H175.637C175.181 8.08 174.845 8.188 174.629 8.404C174.437 8.596 174.341 8.92 174.341 9.376V13.732C174.341 14.188 174.437 14.524 174.629 14.74C174.845 14.932 175.181 15.028 175.637 15.028H179.201V27.124H175.637C175.181 27.124 174.845 27.232 174.629 27.448C174.437 27.64 174.341 27.964 174.341 28.42V32.704C174.341 33.16 174.437 33.496 174.629 33.712C174.845 33.904 175.181 34 175.637 34ZM189.029 30.76H177.581V30.4H183.161V11.68H177.581V11.32H189.029V11.68H183.521V30.4H189.029V30.76ZM203.936 23.092V24.208H217.976V23.092C217.976 22.444 217.916 21.844 217.796 21.292C217.7 20.74 217.568 20.224 217.4 19.744L214.916 13.876C214.652 13.252 214.376 12.736 214.088 12.328C213.8 11.896 213.32 11.68 212.648 11.68H209.12C208.4 11.68 207.896 11.896 207.608 12.328C207.32 12.736 207.056 13.24 206.816 13.84L204.512 19.744C204.344 20.224 204.2 20.74 204.08 21.292C203.984 21.844 203.936 22.444 203.936 23.092ZM209.696 15.64C209.792 15.424 209.888 15.268 209.984 15.172C210.104 15.076 210.236 15.028 210.38 15.028H211.28C211.424 15.028 211.544 15.076 211.64 15.172C211.76 15.268 211.868 15.424 211.964 15.64L213.656 21.112H208.004L209.696 15.64ZM217.976 30.76V24.568H203.936V30.76H203.576V23.092C203.576 22.42 203.624 21.808 203.72 21.256C203.84 20.68 203.996 20.128 204.188 19.6L206.492 13.696C206.756 13.024 207.056 12.46 207.392 12.004C207.728 11.548 208.304 11.32 209.12 11.32H212.648C213.44 11.32 213.992 11.548 214.304 12.004C214.64 12.46 214.952 13.036 215.24 13.732L217.724 19.6C217.916 20.128 218.06 20.68 218.156 21.256C218.276 21.808 218.336 22.42 218.336 23.092V30.76H217.976ZM207.644 32.704V27.664H214.016V32.704C214.016 33.16 214.124 33.496 214.34 33.712C214.58 33.904 214.94 34 215.42 34H220.856C221.312 34 221.636 33.904 221.828 33.712C222.044 33.496 222.152 33.16 222.152 32.704V23.2C222.152 22.48 222.032 21.652 221.792 20.716C221.576 19.78 221.228 18.688 220.748 17.44L217.616 9.268C217.472 8.86 217.244 8.56 216.932 8.368C216.644 8.176 216.272 8.08 215.816 8.08H206.132C205.652 8.08 205.256 8.176 204.944 8.368C204.656 8.56 204.44 8.86 204.296 9.268L201.164 17.44C200.684 18.688 200.324 19.78 200.084 20.716C199.868 21.652 199.76 22.48 199.76 23.2V32.704C199.76 33.16 199.856 33.496 200.048 33.712C200.264 33.904 200.6 34 201.056 34H206.348C206.804 34 207.128 33.904 207.32 33.712C207.536 33.496 207.644 33.16 207.644 32.704ZM202.82 37.924C202.724 38.02 202.568 38.104 202.352 38.176C202.16 38.248 201.944 38.284 201.704 38.284H196.412C195.836 38.284 195.416 38.152 195.152 37.888C194.888 37.624 194.756 37.204 194.756 36.628V27.124C194.756 26.38 194.864 25.54 195.08 24.604C195.32 23.644 195.692 22.516 196.196 21.22L199.292 13.084C199.364 12.868 199.448 12.688 199.544 12.544C199.664 12.376 199.784 12.232 199.904 12.112L199.94 12.076L204.548 8.224C204.74 8.056 204.968 7.936 205.232 7.864C205.496 7.768 205.796 7.72 206.132 7.72H215.816C216.368 7.72 216.812 7.84 217.148 8.08C217.508 8.296 217.772 8.644 217.94 9.124L221.072 17.296C221.576 18.592 221.936 19.72 222.152 20.68C222.392 21.616 222.512 22.456 222.512 23.2V32.704C222.512 33.016 222.464 33.28 222.368 33.496C222.296 33.712 222.176 33.892 222.008 34.036L217.328 37.924C217.232 38.02 217.076 38.104 216.86 38.176C216.668 38.248 216.452 38.284 216.212 38.284H210.776C210.176 38.284 209.732 38.14 209.444 37.852C209.156 37.588 209.012 37.18 209.012 36.628V31.948H208.004V32.704C208.004 33.016 207.956 33.28 207.86 33.496C207.788 33.712 207.668 33.892 207.5 34.036L202.82 37.924Z" fill="#FF0000"/>
<path d="M34.224 81.284H25.44C22.296 81.284 19.968 80.468 18.456 78.836C16.968 77.204 16.224 75.092 16.224 72.5V62.384C16.224 61.064 16.416 59.924 16.8 58.964C17.184 57.98 17.748 57.164 18.492 56.516L23.172 52.592C23.916 51.968 24.864 51.5 26.016 51.188C27.168 50.876 28.524 50.72 30.084 50.72H38.868C39.444 50.72 39.864 50.852 40.128 51.116C40.392 51.38 40.524 51.8 40.524 52.376V56.732C40.524 57.044 40.476 57.308 40.38 57.524C40.308 57.74 40.188 57.92 40.02 58.064L35.34 61.952C35.244 62.048 35.088 62.132 34.872 62.204C34.68 62.276 34.464 62.312 34.224 62.312H29.796V68.396C29.796 68.9 29.952 69.26 30.264 69.476C30.576 69.668 31.032 69.764 31.632 69.764H38.868C39.444 69.764 39.864 69.896 40.128 70.16C40.392 70.424 40.524 70.844 40.524 71.42V75.704C40.524 76.016 40.476 76.28 40.38 76.496C40.308 76.712 40.188 76.892 40.02 77.036L35.34 80.924C35.244 81.02 35.088 81.104 34.872 81.176C34.68 81.248 34.464 81.284 34.224 81.284ZM38.868 77C39.324 77 39.648 76.904 39.84 76.712C40.056 76.496 40.164 76.16 40.164 75.704V71.42C40.164 70.964 40.056 70.64 39.84 70.448C39.648 70.232 39.324 70.124 38.868 70.124H31.632C30.888 70.124 30.336 69.992 29.976 69.728C29.616 69.44 29.436 68.996 29.436 68.396V59.828C29.436 59.228 29.616 58.784 29.976 58.496C30.336 58.184 30.888 58.028 31.632 58.028H38.868C39.324 58.028 39.648 57.932 39.84 57.74C40.056 57.524 40.164 57.188 40.164 56.732V52.376C40.164 51.92 40.056 51.596 39.84 51.404C39.648 51.188 39.324 51.08 38.868 51.08H30.084C27.084 51.08 24.852 51.692 23.388 52.916C21.948 54.116 21.228 55.964 21.228 58.46V69.656C21.228 72.152 21.948 74 23.388 75.2C24.852 76.4 27.084 77 30.084 77H38.868ZM36.888 73.4V73.76H30.876C28.548 73.76 27 73.4 26.232 72.68C25.488 71.96 25.116 70.772 25.116 69.116V59.036C25.116 57.332 25.5 56.12 26.268 55.4C27.036 54.68 28.572 54.32 30.876 54.32H36.888V54.68H30.876C28.764 54.68 27.336 55.016 26.592 55.688C25.848 56.336 25.476 57.452 25.476 59.036V69.116C25.476 70.676 25.836 71.78 26.556 72.428C27.276 73.076 28.716 73.4 30.876 73.4H36.888ZM63.1556 79.556C62.3156 80.276 61.1396 80.828 59.6276 81.212C58.1156 81.62 56.1716 81.824 53.7956 81.824C51.4436 81.824 49.5116 81.572 47.9996 81.068C46.5116 80.588 45.3356 79.94 44.4716 79.124C43.6316 78.308 43.0436 77.372 42.7076 76.316C42.3956 75.26 42.2396 74.168 42.2396 73.04V61.844C42.2396 60.74 42.3956 59.72 42.7076 58.784C43.0196 57.824 43.5836 57.008 44.3996 56.336L49.0796 52.448C49.9196 51.728 51.0836 51.176 52.5716 50.792C54.0836 50.384 56.0396 50.18 58.4396 50.18C60.7916 50.18 62.7116 50.372 64.1996 50.756C65.7116 51.14 66.8876 51.68 67.7276 52.376C68.5916 53.048 69.1796 53.864 69.4916 54.824C69.8036 55.76 69.9596 56.792 69.9596 57.92V70.196C69.9596 71.3 69.8036 72.32 69.4916 73.256C69.1796 74.192 68.6156 74.996 67.7996 75.668L63.1556 79.556ZM69.5996 70.196V57.92C69.5996 56.816 69.4316 55.82 69.0956 54.932C68.7836 54.02 68.2076 53.24 67.3676 52.592C66.5516 51.944 65.4116 51.44 63.9476 51.08C62.5076 50.72 60.6716 50.54 58.4396 50.54C56.2076 50.54 54.3596 50.72 52.8956 51.08C51.4316 51.44 50.2796 51.944 49.4396 52.592C48.6236 53.24 48.0476 54.02 47.7116 54.932C47.3996 55.82 47.2436 56.816 47.2436 57.92V70.196C47.2436 71.3 47.3996 72.308 47.7116 73.22C48.0476 74.108 48.6236 74.876 49.4396 75.524C50.2796 76.148 51.4316 76.64 52.8956 77C54.3596 77.36 56.2076 77.54 58.4396 77.54C60.6716 77.54 62.5076 77.36 63.9476 77C65.4116 76.64 66.5516 76.148 67.3676 75.524C68.2076 74.876 68.7836 74.108 69.0956 73.22C69.4316 72.308 69.5996 71.3 69.5996 70.196ZM65.6756 69.368C65.6756 70.808 65.1596 71.984 64.1276 72.896C63.0956 73.784 61.1756 74.228 58.3676 74.228C55.5596 74.228 53.6516 73.784 52.6436 72.896C51.6356 71.984 51.1316 70.808 51.1316 69.368V58.748C51.1316 57.308 51.6356 56.144 52.6436 55.256C53.6516 54.344 55.5596 53.888 58.3676 53.888C61.1756 53.888 63.0956 54.344 64.1276 55.256C65.1596 56.144 65.6756 57.308 65.6756 58.748V69.368ZM51.4916 69.368C51.4916 70.712 51.9716 71.804 52.9316 72.644C53.8916 73.46 55.7036 73.868 58.3676 73.868C61.0316 73.868 62.8556 73.46 63.8396 72.644C64.8236 71.804 65.3156 70.712 65.3156 69.368V58.748C65.3156 57.404 64.8236 56.324 63.8396 55.508C62.8556 54.668 61.0316 54.248 58.3676 54.248C55.7036 54.248 53.8916 54.668 52.9316 55.508C51.9716 56.324 51.4916 57.404 51.4916 58.748V69.368ZM55.4156 68.9V59.216C55.4156 58.76 55.5956 58.376 55.9556 58.064C56.3156 57.728 57.1436 57.56 58.4396 57.56C59.7356 57.56 60.5636 57.728 60.9236 58.064C61.2836 58.376 61.4636 58.76 61.4636 59.216V68.9C61.4636 69.38 61.2836 69.788 60.9236 70.124C60.5636 70.436 59.7356 70.592 58.4396 70.592C57.1436 70.592 56.3156 70.436 55.9556 70.124C55.5956 69.788 55.4156 69.38 55.4156 68.9ZM55.7756 68.9C55.7756 69.14 55.8236 69.356 55.9196 69.548C56.0156 69.716 56.1956 69.86 56.4596 69.98V63.14C56.4596 62.9 56.4116 62.696 56.3156 62.528C56.2196 62.336 56.0396 62.192 55.7756 62.096V68.9ZM92.7445 81.284H74.4205C73.8445 81.284 73.4245 81.152 73.1605 80.888C72.8965 80.624 72.7645 80.204 72.7645 79.628V56.3C72.7645 55.988 72.8005 55.724 72.8725 55.508C72.9685 55.292 73.1005 55.112 73.2685 54.968L77.9125 51.044C78.0325 50.948 78.1885 50.876 78.3805 50.828C78.5965 50.756 78.8245 50.72 79.0645 50.72H84.6445C85.2205 50.72 85.6405 50.852 85.9045 51.116C86.1685 51.38 86.3005 51.8 86.3005 52.376V67.028L86.3725 66.956L91.0165 63.032C91.1365 62.936 91.2925 62.864 91.4845 62.816C91.7005 62.744 91.9285 62.708 92.1685 62.708H97.3885C97.9645 62.708 98.3845 62.84 98.6485 63.104C98.9125 63.368 99.0445 63.788 99.0445 64.364V75.704C99.0445 76.016 98.9965 76.28 98.9005 76.496C98.8285 76.712 98.7085 76.892 98.5405 77.036L93.8605 80.924C93.7645 81.02 93.6085 81.104 93.3925 81.176C93.2005 81.248 92.9845 81.284 92.7445 81.284ZM97.3885 77C97.8445 77 98.1685 76.904 98.3605 76.712C98.5765 76.496 98.6845 76.16 98.6845 75.704V64.364C98.6845 63.908 98.5765 63.584 98.3605 63.392C98.1685 63.176 97.8445 63.068 97.3885 63.068H92.1685C91.7125 63.068 91.3765 63.176 91.1605 63.392C90.9685 63.584 90.8725 63.908 90.8725 64.364V70.196H85.9405V52.376C85.9405 51.92 85.8325 51.596 85.6165 51.404C85.4245 51.188 85.1005 51.08 84.6445 51.08H79.0645C78.6085 51.08 78.2725 51.188 78.0565 51.404C77.8645 51.596 77.7685 51.92 77.7685 52.376V75.704C77.7685 76.16 77.8645 76.496 78.0565 76.712C78.2725 76.904 78.6085 77 79.0645 77H97.3885ZM81.6925 73.76V54.32H82.0525V73.4H94.5805V66.308H94.9405V73.76H81.6925ZM121.902 79.556C121.062 80.276 119.886 80.828 118.374 81.212C116.862 81.62 114.918 81.824 112.542 81.824C110.19 81.824 108.258 81.572 106.746 81.068C105.258 80.588 104.082 79.94 103.218 79.124C102.378 78.308 101.79 77.372 101.454 76.316C101.142 75.26 100.986 74.168 100.986 73.04V61.844C100.986 60.74 101.142 59.72 101.454 58.784C101.766 57.824 102.33 57.008 103.146 56.336L107.826 52.448C108.666 51.728 109.83 51.176 111.318 50.792C112.83 50.384 114.786 50.18 117.186 50.18C119.538 50.18 121.458 50.372 122.946 50.756C124.458 51.14 125.634 51.68 126.474 52.376C127.338 53.048 127.926 53.864 128.238 54.824C128.55 55.76 128.706 56.792 128.706 57.92V70.196C128.706 71.3 128.55 72.32 128.238 73.256C127.926 74.192 127.362 74.996 126.546 75.668L121.902 79.556ZM128.346 70.196V57.92C128.346 56.816 128.178 55.82 127.842 54.932C127.53 54.02 126.954 53.24 126.114 52.592C125.298 51.944 124.158 51.44 122.694 51.08C121.254 50.72 119.418 50.54 117.186 50.54C114.954 50.54 113.106 50.72 111.642 51.08C110.178 51.44 109.026 51.944 108.186 52.592C107.37 53.24 106.794 54.02 106.458 54.932C106.146 55.82 105.99 56.816 105.99 57.92V70.196C105.99 71.3 106.146 72.308 106.458 73.22C106.794 74.108 107.37 74.876 108.186 75.524C109.026 76.148 110.178 76.64 111.642 77C113.106 77.36 114.954 77.54 117.186 77.54C119.418 77.54 121.254 77.36 122.694 77C124.158 76.64 125.298 76.148 126.114 75.524C126.954 74.876 127.53 74.108 127.842 73.22C128.178 72.308 128.346 71.3 128.346 70.196ZM124.422 69.368C124.422 70.808 123.906 71.984 122.874 72.896C121.842 73.784 119.922 74.228 117.114 74.228C114.306 74.228 112.398 73.784 111.39 72.896C110.382 71.984 109.878 70.808 109.878 69.368V58.748C109.878 57.308 110.382 56.144 111.39 55.256C112.398 54.344 114.306 53.888 117.114 53.888C119.922 53.888 121.842 54.344 122.874 55.256C123.906 56.144 124.422 57.308 124.422 58.748V69.368ZM110.238 69.368C110.238 70.712 110.718 71.804 111.678 72.644C112.638 73.46 114.45 73.868 117.114 73.868C119.778 73.868 121.602 73.46 122.586 72.644C123.57 71.804 124.062 70.712 124.062 69.368V58.748C124.062 57.404 123.57 56.324 122.586 55.508C121.602 54.668 119.778 54.248 117.114 54.248C114.45 54.248 112.638 54.668 111.678 55.508C110.718 56.324 110.238 57.404 110.238 58.748V69.368ZM114.162 68.9V59.216C114.162 58.76 114.342 58.376 114.702 58.064C115.062 57.728 115.89 57.56 117.186 57.56C118.482 57.56 119.31 57.728 119.67 58.064C120.03 58.376 120.21 58.76 120.21 59.216V68.9C120.21 69.38 120.03 69.788 119.67 70.124C119.31 70.436 118.482 70.592 117.186 70.592C115.89 70.592 115.062 70.436 114.702 70.124C114.342 69.788 114.162 69.38 114.162 68.9ZM114.522 68.9C114.522 69.14 114.57 69.356 114.666 69.548C114.762 69.716 114.942 69.86 115.206 69.98V63.14C115.206 62.9 115.158 62.696 115.062 62.528C114.966 62.336 114.786 62.192 114.522 62.096V68.9ZM148.611 54.68H140.763V65.084H148.611C150.099 65.084 151.095 64.724 151.599 64.004C152.103 63.284 152.355 62.264 152.355 60.944V58.424C152.355 57.32 152.043 56.42 151.419 55.724C150.819 55.028 149.883 54.68 148.611 54.68ZM144.651 57.56H147.351C147.975 57.56 148.395 57.728 148.611 58.064C148.827 58.376 148.935 58.772 148.935 59.252V60.476C148.935 60.956 148.827 61.364 148.611 61.7C148.395 62.012 147.975 62.168 147.351 62.168H144.651V57.56ZM140.763 73.76H140.403V54.32H148.611C150.003 54.32 151.035 54.716 151.707 55.508C152.379 56.276 152.715 57.248 152.715 58.424V60.908C152.715 62.012 152.571 62.924 152.283 63.644C151.995 64.34 151.419 64.82 150.555 65.084H150.951C152.415 65.084 153.507 65.42 154.227 66.092C154.947 66.74 155.307 67.688 155.307 68.936V73.76H154.947V68.936C154.947 67.76 154.623 66.884 153.975 66.308C153.327 65.708 152.319 65.408 150.951 65.408H140.763V73.76ZM143.355 77C143.811 77 144.135 76.904 144.327 76.712C144.543 76.496 144.651 76.16 144.651 75.704V68.648H149.691C150.195 68.648 150.543 68.78 150.735 69.044C150.951 69.284 151.059 69.668 151.059 70.196V75.704C151.059 76.16 151.155 76.496 151.347 76.712C151.563 76.904 151.899 77 152.355 77H157.935C158.391 77 158.715 76.904 158.907 76.712C159.123 76.496 159.231 76.16 159.231 75.704V68.072C159.231 66.56 158.823 65.348 158.007 64.436C157.215 63.524 156.171 62.996 154.875 62.852C155.619 62.54 156.135 62.036 156.423 61.34C156.735 60.62 156.891 59.756 156.891 58.748V57.092C156.891 55.316 156.375 53.876 155.343 52.772C154.335 51.644 152.487 51.08 149.799 51.08H137.811C137.355 51.08 137.019 51.188 136.803 51.404C136.611 51.596 136.515 51.92 136.515 52.376V75.704C136.515 76.16 136.611 76.496 136.803 76.712C137.019 76.904 137.355 77 137.811 77H143.355ZM144.507 77.036L139.827 80.924C139.731 81.02 139.575 81.104 139.359 81.176C139.167 81.248 138.951 81.284 138.711 81.284H133.167C132.591 81.284 132.171 81.152 131.907 80.888C131.643 80.624 131.511 80.204 131.511 79.628V56.3C131.511 55.988 131.547 55.724 131.619 55.508C131.715 55.292 131.847 55.112 132.015 54.968L136.659 51.044C136.779 50.948 136.935 50.876 137.127 50.828C137.343 50.756 137.571 50.72 137.811 50.72H149.799C152.655 50.72 154.611 51.32 155.667 52.52C156.723 53.696 157.251 55.22 157.251 57.092V58.748C157.251 59.636 157.143 60.416 156.927 61.088C156.711 61.736 156.363 62.264 155.883 62.672H155.847C156.975 62.984 157.875 63.608 158.547 64.544C159.243 65.48 159.591 66.656 159.591 68.072V75.704C159.591 76.016 159.543 76.28 159.447 76.496C159.375 76.712 159.255 76.892 159.087 77.036L154.407 80.924C154.311 81.02 154.155 81.104 153.939 81.176C153.747 81.248 153.531 81.284 153.291 81.284H147.711C147.135 81.284 146.715 81.152 146.451 80.888C146.187 80.624 146.055 80.204 146.055 79.628V74.12C146.055 73.736 145.983 73.448 145.839 73.256C145.695 73.04 145.431 72.932 145.047 72.932H145.011V75.704C145.011 76.016 144.963 76.28 144.867 76.496C144.795 76.712 144.675 76.892 144.507 77.036ZM170.49 66.092V67.208H184.53V66.092C184.53 65.444 184.47 64.844 184.35 64.292C184.254 63.74 184.122 63.224 183.954 62.744L181.47 56.876C181.206 56.252 180.93 55.736 180.642 55.328C180.354 54.896 179.874 54.68 179.202 54.68H175.674C174.954 54.68 174.45 54.896 174.162 55.328C173.874 55.736 173.61 56.24 173.37 56.84L171.066 62.744C170.898 63.224 170.754 63.74 170.634 64.292C170.538 64.844 170.49 65.444 170.49 66.092ZM176.25 58.64C176.346 58.424 176.442 58.268 176.538 58.172C176.658 58.076 176.79 58.028 176.934 58.028H177.834C177.978 58.028 178.098 58.076 178.194 58.172C178.314 58.268 178.422 58.424 178.518 58.64L180.21 64.112H174.558L176.25 58.64ZM184.53 73.76V67.568H170.49V73.76H170.13V66.092C170.13 65.42 170.178 64.808 170.274 64.256C170.394 63.68 170.55 63.128 170.742 62.6L173.046 56.696C173.31 56.024 173.61 55.46 173.946 55.004C174.282 54.548 174.858 54.32 175.674 54.32H179.202C179.994 54.32 180.546 54.548 180.858 55.004C181.194 55.46 181.506 56.036 181.794 56.732L184.278 62.6C184.47 63.128 184.614 63.68 184.71 64.256C184.83 64.808 184.89 65.42 184.89 66.092V73.76H184.53ZM174.198 75.704V70.664H180.57V75.704C180.57 76.16 180.678 76.496 180.894 76.712C181.134 76.904 181.494 77 181.974 77H187.41C187.866 77 188.19 76.904 188.382 76.712C188.598 76.496 188.706 76.16 188.706 75.704V66.2C188.706 65.48 188.586 64.652 188.346 63.716C188.13 62.78 187.782 61.688 187.302 60.44L184.17 52.268C184.026 51.86 183.798 51.56 183.486 51.368C183.198 51.176 182.826 51.08 182.37 51.08H172.686C172.206 51.08 171.81 51.176 171.498 51.368C171.21 51.56 170.994 51.86 170.85 52.268L167.718 60.44C167.238 61.688 166.878 62.78 166.638 63.716C166.422 64.652 166.314 65.48 166.314 66.2V75.704C166.314 76.16 166.41 76.496 166.602 76.712C166.818 76.904 167.154 77 167.61 77H172.902C173.358 77 173.682 76.904 173.874 76.712C174.09 76.496 174.198 76.16 174.198 75.704ZM169.374 80.924C169.278 81.02 169.122 81.104 168.906 81.176C168.714 81.248 168.498 81.284 168.258 81.284H162.966C162.39 81.284 161.97 81.152 161.706 80.888C161.442 80.624 161.31 80.204 161.31 79.628V70.124C161.31 69.38 161.418 68.54 161.634 67.604C161.874 66.644 162.246 65.516 162.75 64.22L165.846 56.084C165.918 55.868 166.002 55.688 166.098 55.544C166.218 55.376 166.338 55.232 166.458 55.112L166.494 55.076L171.102 51.224C171.294 51.056 171.522 50.936 171.786 50.864C172.05 50.768 172.35 50.72 172.686 50.72H182.37C182.922 50.72 183.366 50.84 183.702 51.08C184.062 51.296 184.326 51.644 184.494 52.124L187.626 60.296C188.13 61.592 188.49 62.72 188.706 63.68C188.946 64.616 189.066 65.456 189.066 66.2V75.704C189.066 76.016 189.018 76.28 188.922 76.496C188.85 76.712 188.73 76.892 188.562 77.036L183.882 80.924C183.786 81.02 183.63 81.104 183.414 81.176C183.222 81.248 183.006 81.284 182.766 81.284H177.33C176.73 81.284 176.286 81.14 175.998 80.852C175.71 80.588 175.566 80.18 175.566 79.628V74.948H174.558V75.704C174.558 76.016 174.51 76.28 174.414 76.496C174.342 76.712 174.222 76.892 174.054 77.036L169.374 80.924ZM212.433 79.376C211.689 80 210.741 80.468 209.589 80.78C208.437 81.116 207.081 81.284 205.521 81.284H193.389C192.813 81.284 192.393 81.152 192.129 80.888C191.865 80.624 191.733 80.204 191.733 79.628V56.3C191.733 55.988 191.769 55.724 191.841 55.508C191.937 55.292 192.069 55.112 192.237 54.968L196.881 51.044C197.001 50.948 197.157 50.876 197.349 50.828C197.565 50.756 197.793 50.72 198.033 50.72H210.165C213.309 50.72 215.625 51.356 217.113 52.628C218.625 53.9 219.381 55.832 219.381 58.424V69.656C219.381 70.952 219.189 72.092 218.805 73.076C218.421 74.036 217.857 74.84 217.113 75.488L212.433 79.376ZM210.165 77C213.165 77 215.385 76.4 216.825 75.2C218.289 74 219.021 72.152 219.021 69.656V58.424C219.021 55.928 218.289 54.08 216.825 52.88C215.385 51.68 213.165 51.08 210.165 51.08H198.033C197.577 51.08 197.241 51.188 197.025 51.404C196.833 51.596 196.737 51.92 196.737 52.376V75.704C196.737 76.16 196.833 76.496 197.025 76.712C197.241 76.904 197.577 77 198.033 77H210.165ZM200.661 73.76V54.32H209.373C210.597 54.32 211.581 54.452 212.325 54.716C213.093 54.98 213.681 55.34 214.089 55.796C214.497 56.228 214.773 56.756 214.917 57.38C215.061 57.98 215.133 58.628 215.133 59.324V68.864C215.133 69.56 215.061 70.208 214.917 70.808C214.797 71.408 214.533 71.924 214.125 72.356C213.717 72.788 213.129 73.136 212.361 73.4C211.593 73.64 210.597 73.76 209.373 73.76H200.661ZM209.373 54.68H201.021V73.4H209.373C210.525 73.4 211.449 73.292 212.145 73.076C212.865 72.836 213.417 72.524 213.801 72.14C214.185 71.732 214.437 71.252 214.557 70.7C214.701 70.124 214.773 69.512 214.773 68.864V59.324C214.773 58.676 214.701 58.064 214.557 57.488C214.413 56.912 214.149 56.42 213.765 56.012C213.381 55.604 212.829 55.28 212.109 55.04C211.413 54.8 210.501 54.68 209.373 54.68ZM204.909 57.956H209.193C209.769 57.956 210.189 58.1 210.453 58.388C210.741 58.652 210.885 59.084 210.885 59.684V68.432C210.885 69.032 210.741 69.476 210.453 69.764C210.189 70.052 209.769 70.196 209.193 70.196H204.909V57.956ZM205.881 63.608C205.881 63.296 205.833 63.032 205.737 62.816C205.641 62.6 205.485 62.444 205.269 62.348V69.836H205.881V63.608ZM242.699 79.556C241.859 80.276 240.683 80.828 239.171 81.212C237.659 81.62 235.715 81.824 233.339 81.824C230.987 81.824 229.055 81.572 227.543 81.068C226.055 80.588 224.879 79.94 224.015 79.124C223.175 78.308 222.587 77.372 222.251 76.316C221.939 75.26 221.783 74.168 221.783 73.04V61.844C221.783 60.74 221.939 59.72 222.251 58.784C222.563 57.824 223.127 57.008 223.943 56.336L228.623 52.448C229.463 51.728 230.627 51.176 232.115 50.792C233.627 50.384 235.583 50.18 237.983 50.18C240.335 50.18 242.255 50.372 243.743 50.756C245.255 51.14 246.431 51.68 247.271 52.376C248.135 53.048 248.723 53.864 249.035 54.824C249.347 55.76 249.503 56.792 249.503 57.92V70.196C249.503 71.3 249.347 72.32 249.035 73.256C248.723 74.192 248.159 74.996 247.343 75.668L242.699 79.556ZM249.143 70.196V57.92C249.143 56.816 248.975 55.82 248.639 54.932C248.327 54.02 247.751 53.24 246.911 52.592C246.095 51.944 244.955 51.44 243.491 51.08C242.051 50.72 240.215 50.54 237.983 50.54C235.751 50.54 233.903 50.72 232.439 51.08C230.975 51.44 229.823 51.944 228.983 52.592C228.167 53.24 227.591 54.02 227.255 54.932C226.943 55.82 226.787 56.816 226.787 57.92V70.196C226.787 71.3 226.943 72.308 227.255 73.22C227.591 74.108 228.167 74.876 228.983 75.524C229.823 76.148 230.975 76.64 232.439 77C233.903 77.36 235.751 77.54 237.983 77.54C240.215 77.54 242.051 77.36 243.491 77C244.955 76.64 246.095 76.148 246.911 75.524C247.751 74.876 248.327 74.108 248.639 73.22C248.975 72.308 249.143 71.3 249.143 70.196ZM245.219 69.368C245.219 70.808 244.703 71.984 243.671 72.896C242.639 73.784 240.719 74.228 237.911 74.228C235.103 74.228 233.195 73.784 232.187 72.896C231.179 71.984 230.675 70.808 230.675 69.368V58.748C230.675 57.308 231.179 56.144 232.187 55.256C233.195 54.344 235.103 53.888 237.911 53.888C240.719 53.888 242.639 54.344 243.671 55.256C244.703 56.144 245.219 57.308 245.219 58.748V69.368ZM231.035 69.368C231.035 70.712 231.515 71.804 232.475 72.644C233.435 73.46 235.247 73.868 237.911 73.868C240.575 73.868 242.399 73.46 243.383 72.644C244.367 71.804 244.859 70.712 244.859 69.368V58.748C244.859 57.404 244.367 56.324 243.383 55.508C242.399 54.668 240.575 54.248 237.911 54.248C235.247 54.248 233.435 54.668 232.475 55.508C231.515 56.324 231.035 57.404 231.035 58.748V69.368ZM234.959 68.9V59.216C234.959 58.76 235.139 58.376 235.499 58.064C235.859 57.728 236.687 57.56 237.983 57.56C239.279 57.56 240.107 57.728 240.467 58.064C240.827 58.376 241.007 58.76 241.007 59.216V68.9C241.007 69.38 240.827 69.788 240.467 70.124C240.107 70.436 239.279 70.592 237.983 70.592C236.687 70.592 235.859 70.436 235.499 70.124C235.139 69.788 234.959 69.38 234.959 68.9ZM235.319 68.9C235.319 69.14 235.367 69.356 235.463 69.548C235.559 69.716 235.739 69.86 236.003 69.98V63.14C236.003 62.9 235.955 62.696 235.859 62.528C235.763 62.336 235.583 62.192 235.319 62.096V68.9Z" fill="#706400"/>
<g filter="url(#filter0_d_1_2)">
<path d="M276.619 27.5719C284.592 28.6002 291.674 30.0964 297.381 31.958C303.087 33.8197 307.283 36.0029 309.682 38.3583L251 43L276.619 27.5719Z" fill="#DDE111"/>
</g>
<path d="M276.619 27.5719C284.592 28.6002 291.674 30.0964 297.381 31.958C303.087 33.8197 307.283 36.0029 309.682 38.3583L301.262 39.0243C299.207 37.0069 295.613 35.1369 290.726 33.5424C285.838 31.9479 279.772 30.6664 272.943 29.7857L276.619 27.5719Z" fill="#F9D4A9"/>
<ellipse cx="275.5" cy="33" rx="3.5" ry="2" fill="#FF0000"/>
<ellipse cx="291.5" cy="36" rx="3.5" ry="2" fill="#FF0000"/>
<ellipse cx="280" cy="37.5" rx="3" ry="1.5" fill="#FF0000"/>
<ellipse cx="264.5" cy="37.5" rx="2.5" ry="1.5" fill="#FF0000"/>
<defs>
<filter id="filter0_d_1_2" x="241" y="21.5719" width="78.6821" height="35.4281" filterUnits="userSpaceOnUse" color-interpolation-filters="sRGB">
<feFlood flood-opacity="0" result="BackgroundImageFix"/>
<feColorMatrix in="SourceAlpha" type="matrix" values="0 0 0 0 0 0 0 0 0 0 0 0 0 0 0 0 0 0 127 0" result="hardAlpha"/>
<feOffset dy="4"/>
<feGaussianBlur stdDeviation="5"/>
<feComposite in2="hardAlpha" operator="out"/>
<feColorMatrix type="matrix" values="0 0 0 0 0 0 0 0 0 0 0 0 0 0 0 0 0 0 0.25 0"/>
<feBlend mode="normal" in2="BackgroundImageFix" result="effect1_dropShadow_1_2"/>
<feBlend mode="normal" in="SourceGraphic" in2="effect1_dropShadow_1_2" result="shape"/>
</filter>
</defs>
</svg>
